<mxfile host="app.diagrams.net" modified="2024-05-24T13:03:08.652Z" agent="Mozilla/5.0 (Windows NT 10.0; Win64; x64) AppleWebKit/537.36 (KHTML, like Gecko) Chrome/124.0.0.0 Safari/537.36" etag="6TslP1I5tBdf2eBj9aMn" version="24.4.8" type="github">
  <diagram name="Page-1" id="AfgDvelkvI5OpP8kkhn6">
    <mxGraphModel dx="1434" dy="738" grid="1" gridSize="10" guides="1" tooltips="1" connect="1" arrows="1" fold="1" page="1" pageScale="1" pageWidth="850" pageHeight="1100" math="0" shadow="0">
      <root>
        <mxCell id="0" />
        <mxCell id="1" parent="0" />
        <mxCell id="Ic-RP3hw3uzLLvs5jVVw-1" value="Logic app" style="image;sketch=0;aspect=fixed;html=1;points=[];align=center;fontSize=12;image=img/lib/mscae/Logic_Apps.svg;" vertex="1" parent="1">
          <mxGeometry x="137.44" y="440" width="102.56" height="80" as="geometry" />
        </mxCell>
        <mxCell id="Ic-RP3hw3uzLLvs5jVVw-2" value="Log Analytics" style="image;aspect=fixed;html=1;points=[];align=center;fontSize=12;image=img/lib/azure2/management_governance/Log_Analytics_Workspaces.svg;" vertex="1" parent="1">
          <mxGeometry x="440" y="441" width="80" height="80" as="geometry" />
        </mxCell>
        <mxCell id="Ic-RP3hw3uzLLvs5jVVw-3" value="rg-saipem-soc" style="image;sketch=0;aspect=fixed;html=1;points=[];align=center;fontSize=12;image=img/lib/mscae/ResourceGroup.svg;" vertex="1" parent="1">
          <mxGeometry x="540" y="348" width="75" height="60" as="geometry" />
        </mxCell>
        <mxCell id="Ic-RP3hw3uzLLvs5jVVw-4" value="Sentinel" style="image;aspect=fixed;html=1;points=[];align=center;fontSize=12;image=img/lib/azure2/security/Azure_Sentinel.svg;" vertex="1" parent="1">
          <mxGeometry x="650" y="460" width="48.59" height="59" as="geometry" />
        </mxCell>
        <mxCell id="Ic-RP3hw3uzLLvs5jVVw-5" value="Orchestrator" style="shape=image;verticalLabelPosition=bottom;labelBackgroundColor=default;verticalAlign=top;aspect=fixed;imageAspect=0;image=data:image/png,iVBORw0KGgoAAAANSUhEUgAAAHkAAABtCAYAAACFvc7EAAAAAXNSR0IArs4c6QAAAARnQU1BAACxjwv8YQUAAAAJcEhZcwAADsMAAA7DAcdvqGQAACH7SURBVHhe7Z0JmBxVtcdPrzOTTPaEEPY1LFGWgOyPByjK5wMReAR4PEWBT4UPP+V9Lp/6sfi5soiIgCIggvrYRBYF4QFhCUvCvgUSyEJIAlkmyew9M909/c7vVJ9OpTOTzGSqZ4D0P7lTVbdu3br3/O8599xbt6pj3d3dBaniY414cVvFxxhVkjcDVEneDFAleTNAleTNAFWSNwNUSd4MUCV5M0CV5M0AVZI3A0Q+rVko9J4d5/z8smXL5P3335dcLiexWExGjBgh2267rW057gm95d1b+ioCREJyufA5RvCad+m4q6vLwj//+U+ZOXOmvPvuu9LW1ibxeNzOJxIJGT16tBx88MFy1FFHyV577WXXJ5PJUh4bQpXo3hEZyfl83gQdFraT3dDQIE899ZTcd9998sYbb0g2m7X0YeJIB+GQXV9fL5/61Kdk2rRpss8++0g6nd4oiRs7vzkjMpLLNQ0tJA6Nvf7662X69OlmmsPaDSDH9yEYbXft3mmnneTkk0+2UE50OalVkntHJCRDXFjIfvzee+/JT3/6U5kxY4aZYswzZEEihEMk5pj0BCfXkclkZMyYMXL88cfLN77xDRk5cmSvRFdJ7h0D9q7DpDjQyJUrV8qvf/1refnllyWVShlhkOhgH2LQXDf1nhdbGgFmm/O33nqrPPLII9LR0WHnHT3du4r1EckQqlyLEP4DDzwgTz75pJHkIB39cXt7u23R6vHjx8uoUaNKptq9bY47OztNw53o119/fT1iezr+MJDfUzk8rqdQSUTqXft23rx5cvrpp5v2ehyaC3EQPGHCBDnggANk6tSpsuOOO0pra6u89dZbMmvWLHnzzTdNszHjXAvJWAKIx2yff/75puGeL/HhRkZ8edxQwMsHKMuGjkElyxsJyYBCE9DECy+8UP7xj3+UCg5RAJJ32WUX+epXv2rDpOHDh5fSQCwmHift/vvvl+bmZqmrqysJg/OTJk2Sn//85+Zxk6ebfD8fFhT3AsSVCzSMDZ0bKMjby+T34bg8DoTLHjUi1WSwaNEi+eY3v2mTHZhbQAUgYYcddpDvfve7ctBBB5l2uhD8ekhjuHXttdfKvffea2Yak86WdGj32WefLeecc07pWg+k4d7scy9IZr83+PWVAHnX1NSYoxie3PF6gvC9K1UOx4BJpuDhwjNU+tnPfmZkIWg/X1tbK1/5ylfkzDPPNLLCTlgYaCgzYaRdvnx5yfsmPeQdeeSR8stf/tKEGCaStGj5qlWrrHGFtdzBsQc/jhpeXxrxxIkTrWEzsbPvvvua5aIuhHBZKlGOMCIbQjnRd955p5FMJTHdgO3WW28tV1xxhZlrCOqtYuRDftddd5387ne/s2OIJj0k77777nLllVfKlltuuQ6RNIwzzjjDGhf3660ROQm+HzXIkzJ546TBMXxkyvbLX/6yHH300etYMa+D16MSiNS7puBNTU2mYRDiQIsZ7+JJewV7A+cItH7XVo9jn36be3BPjydALPckHuGy740vHIALFQFHHSgjW8C+DwMZGVxwwQXmOD7zzDN2HpSXLxyiQmQkeyVpwR5HAAibyrIFxHtFiHMy/Jzn43l4nF/j9wiD8z4r5mVhf7DhZSTQ8Hy46JYNgi+55BK57bbbjHwaY7hBhmURFSIhOQwETUERMkDQmKzGxkarJK3bifPz5WRw7YIFC+y6sNAYkoU1Bfg5iHfy2Xq6cCi/TzjvqAJwoiCWEL4/hC5dulQuvvhi6444Ri5+nSOc30ARCcleIAIai3lmn0ITqBwO0auvvmqzVuH0HjwfKgyZTKQgAAfaAHmMsdn6NQ5IpYEBBEoaFzKBY87TBXignOHjgQTyIgwbNsxkwP2oR1hTveHReBke3n333XLHHXdYXUhT3hDLG+WmIrIhlAemMel3mKeGMCpHPBU87LDDbAy9xRZb9FgB0iEApjAvu+wyc6IgiHjy4ppTTjlFvve97xlhxHs+XMewC8F6wwrfo/x+5cdRgobMEJJJIbYffPCBxVMXJ5MAxo4dazI58MADrbEA6gWiKmNk3jWgcDhF3/nOd+SFF14wYt0UUTkK/aUvfckmQ3DCOKayXin6qJdeesnmvBEQ13LOGwpDkB/96EfyxS9+sUS6X09AuGgQ6V2IYVSS2DC4P3Wh4fHsnMb3/PPPW1zY2lAeJn2YGPr+978vO++8c0kWIKryJi666KKLi/ubDC8YhYJYKsfzYyeJwDkI4HkyT6cwaZAG+ZDDEAgNvuGGG2Tu3LmWFqEAWjh57rHHHnLaaaeZpw7I0wNAgAiPMvQUOLdJIaGNSUMiQd59CXQVSTPdu+022aZwqePbb79t3Q55AhoD2r1kyRLZfvvtbXjo54DXa6CI1FxTKAqOk4XGPf300xbn57zQHGOmmKZkDAmZK1assAmNlpYWIxVSINbNNY2B1o4W05+F8wvnGzliRStlf/uGmCb2sgTbmHZf7fKHP/zBHrTQ+CGTLfVEZjRgJnkgG4TrN1BE4niBcIGYyvvWt75lsz3EQxqaSYVp0WD16tWm1c8++6yZdhYX0J9SeUin4uxzPddh0j7zmc+YdrgAPDjK43sL/YXRxXV9DOvfj66mzmbxDjnkkGJcYLIdeNxoOvWOGpGRDCCDCtA6aZGYVrQOE+UtG810eGV9C2gMvkUIjDOZJWPOe9y4cabR5OVhUBAqX59RvIS6xeJ6oP9p/Fgir0e4/sjotddeKylBlIiE5HKy2NI/HnvssbaigynIcKXC5BBPcNCSIRhyAR45nvZWW21l14db/8ZJDp9nf/3Av2A/Wii1QX3tf/CPxr/nnnvKrrvuavWk3q65dFOMJrjG6xVVI47cXHshIQMtZsijzp05H1SS874tryhgn/O09lNPPdU0GKtAPNcQyJt7eFgfHsdWPfMSkdyH4Mec4fy6caVA5zpAGL3FchMYPuJF0x87qAMWzn0Sj4sKkZprKhHeQgYazRiQhxY8IvzkJz9pfbRrsGumD4lwxui3/vrXv9p4G1NNPMST1tOz9fusDwQUkGs86R8TmvqY+FHmGOmlAflFgRbWJzr4Fw3IyctLHbFW3jUB6o/1cnMdJcmReNeODRUMQqkk48LZs2fbOJgJEzxxSKe/YhkQDyZo6cSBcJ5hUoknELc+2YhUSSteWyCN7sepqkXp2Xy75Jg4qdVhV2q46CCLG6x7D99dL/8NI96DGLppRIXAAjFvzfw1DRe52Hm1VNT9F7/4hT2xAj3Xrf+IlOSNIUyM7/u40TXVz5Wjf5UNSI6pYPVuRhYEQ7ZmLt1tTdIy73VpWDBPtj/oYOkaO0lS6XpJxrQcmt5y0LTdJNf9/gq6J5KpE70Sed1yyy3y29/+ttRVUW/2sXIMoyDZ5dTfe/eESM31xkCB3dz6PhpLf+SV6Ylg0Ft8rygmN5KK+916j+6Cjk3b10jD09NlyQN/k45XZ0ldd0bPah9p99Bg28CuD1zEaxEmzDUYEO/Bj8PbgWJQSXaEK+XBtZgwUJTMrJEbEIdWxrrVB2hukMzsl6Vp5lMybtUKmXvvXdK9ZIGk8hnltCj44vXenxczGhiKedJYsVre95bXl2PX4qgwJCRvCK6xbD2AflVaL+Eq1VsyCgLHHW2SfecNefOu22RcZ0bGqjmvXblC5t1zpxRWLpZ4vkvTqglV76xQVH82sVKr6QOCy3oEdSDgZEE0dfPGDbyuUWNISO6tMk4qwQXioX+g/9VN0dGyPPUw1t4qC596VOrXLJP67pykNX5MLC9dc16X5c8/JZLVsXl3lgtCXAV9uv1Rx2lDIWYBTQwCfTBBswvSFIHDSTcVrif7oP913TjW3nkQsaGKeKXDYWPwhkEoDpyCeN3gVeeV0Lhq8dIZj0nza69LbUerctmq5zolmeuU+pZGaXz8YTXjbyjRrDANZtXyqsbd6owFBGmXon83FPQi/hpK5VGW8W19n+VLr7zyiqVBm4HdS/toJnx4cONxUcHK9mFBf4gFLkgHpNpW/+V0PxtTIeazkuzulNiiOdKpztaY5oykc3FJqcAJCQ01uazEVPgfPDtDpHG1kpHThhGTfCEluSLBfSlRebnLicI0v/jiizZHzTnSQy77zCfwokF42pdGEQU+VCQPFIGPZH8wskXSVYsblsmy+++WrA6Z6rvaJZ3PqaMVKwYlWQVd29YuTS+/ICtnPiuJjnZJqU1IdmlD0OysXyarTQBEQi6Bx6kPPvigzQ04uU40q0omT55cet5MfHmj2VR8jEiGXB0bQ7AKDw1NimpoZ6u0znpc3p8xXUbqUCkpGR0La3yxD01oS0io112X75RRTQ2y4MG7JPPOqzqubldtJh0Cpxsg977DtRhtZJ8na3/5y1/k8ccfL5HuJONpo8U8Tw7PglVJLsHFHwjVgIAhSPvhjrffkCXTH5Jx0iGpWIsUEh2Sixckq5a8S/vEnPa53SqFeCwrw6RZhq2YLx88fJ90vfeWpOu0P01oKGbbV2E5wRAJUSxKvOaaa+Tvf/+7Tf4E/XQQAP3w5z//eZvudERFMBgykhFEb6GvMEGUZMF1BDWDsZySrP3qmlXywZOPiaxcJrVxFW4ho46UblUz80puTknIasDBKsS1f1YtH68Omcx+XZ2w1yWWbdPsfdIiKJuT01tZnRxMMCtg+HzG1VdfbUuAiENTw/kQmOli0b07YlFjUKc1w3AhuVCorIM4vFAWFbAQjqczCIB4NIE3Jnl8aQVH0Gpuza4qUUqfkpmXhHrJ2RkzZO4N18qo9hVSK6rF0qWEJiRVM1YyyXrZZudd5P05b0qys1ESSn6ikLM8O2P10jZ5qmz132dJ3R77Siw5MrAVwQ01BGWOa3l4VvzYY4/Ja+q1U75Me7vFtTQ3y1tz5sriJYulYGQyhdsV1NuuDcz1FhPGyyWXXiZT993X4h3kvcmOQBmGhGQnmIBJg2CW+rBs94knnrB+i5fXWBRIGs7ncsEbEjzEwPTxZmMgcxW/etCFBKZRyS7ofq5DMm/NlkVXXyNj3n9X0mqGY/EudcHySm6drJKRst0xx8m43SbL3AcfkpSOk0fk2ySl2l7Q/Lq7U7IqPVIy+x8se591rsj47bXh4IoFUkf+wRbnKC6/+tXl8uc//5kY+99tThX17Ja4Ns6A0OBRaUI12eqSy8uYMaPl61//upx66mnaiDGq5Gc5l+4RBYbEXDtxVJp9CL399tvlvPPOU4H9yt5TZhkr7y0jENIEAg08Uc9D/yjHaDES0X02eSVzxRJZ/NC9UrNykdTmWpRkNcV5JSlWJ63J4TJ8vwNk7FGfldiUqTLpmP+Qrkk7SmehzoiMqWumlMjIjjbpfuUlWTVLh1WtK/W+wSRJcG9uyc1iRmhWyxgcqx0p7hPc+hh0y3VWbz2sra2Rk0+eJscee5w19LXERkswGBKSqbhrMCb5Bz/4gfVb77zzTolUBOTvJ5POAcmBUFSkxOsQiGrwxAnPururQ5pfnCm5156T2q5Gc6jyeTXU6kln0vWS33Jb2en4EyW+9XYSGzFeRh9wsIw55HBpGzFBMkpyvqB9pnpiNWryt820yurHHpXsvDd1JKbmHs1UU+xkOKk8vapJpSWVSEoSYpVMNBMtB9YgFVxH+vHjJ8gFF14oZ511powePaqYJ/lFTzAYMk1m2MBqTt704/kypDJGZEug7+UhOmYckrkGATjpLjgxM8e+BtW+zPy50vT0I1LftkrHuupk6RmlQTpTdbKmfrhs+e9HSXr7XbRvrhHtnDUMkwmHHSbJ3feWzrj2vd21mlPackypCU8vekeanp0h6aYVSl7GGpJrp9JojpRPUdJAlSYrP+cYyukJTandkm7qampl/6n7yaWXXirHqwYPrxumqs35gNxKEAyGhGQIZI01y4IAszwIyDUWTSX4Y0ji0WBCN0+SWBhXFHY8puNKk472p80fSJMOf/KL5kpS+9d4Im8zX12xtLRjpidPkTEHHCqFunpJQDDXxVOSmLitTPi3I6UwfgdtEMO1YTAhkdQeXMfPXS3S9MIz0vbCs5LOqeetfb61AP2jzc2yyGTatUG2qdnOaj2yNiamPjQAiN1qy0n2ETr63x//+Mey7957W6PwhgoJaH9/Qn8w6IsGIIxluHz6iSEGgkCDIRDhQJxrCm/qM4bcbrvtjFjMJSacZUS77babZoiZVrOvY+B4x0ppUw1ecP0VUp/Vfli5T6lzk8+lpCM+SprHbi27n32O1E6dqiSP1NxD7VslkFvdKK3/95Asuv1/ZYtCm9R0N+uJdk1WkBbV+tZtdpVdzz5X0lP217HziGBOW4uJtvIRuoceekhyXTp003J2dXZpuYfLxImTrOwsYeKbZIwIvH5OcLi+lULFSaYyXikIZvnPt7/9bXOuIBdzDNGc4xgtZ8H9pz/9aZkyZYp9mY839ovdsJKnzpEKMgHpSpT23pLINYkseFXm3HSd1C18VWqySrqSU9D+OqNavKZ2rGxz3H/KuGNOknz9SL2+xvJAtFQeeXdnVfPefUfevfVmaX95loxWDR6WVKuhfTNGv1HzSB16pOxw2hmSnbCdti/NQ6+NacFooLmurNSa2ebpU9GHoBHov7h2KXjY6zSsQcSgaDKVhmSEwbKXP/3pTxZP30Wcm2QCi+hPOumk0upOwLSiNRbbV1EhK9XqPOzo2FiWLpSF99wqHbOmy/jWZhmtKQvaWLo0cesIdbb22ku2P+lUyW6xg8RrxikxKSMAoVN5motp1Oqlkp89S+bddbvI/HkySckpqNmVeE660nXSMG5rGX/8NBl7xNGSHz7B8uE6RudBY6G14ABqw1NSbaxLPPkHN9T0lZnw2BAGheSgL+02B4tXXXhbwLXXt/RhJ5xwgn1TZJtttgmEp/GBJ60NAFEp2cgtpdu4eswFHvJnm2Xl4w/L0nv+JqNXfSCjNW6YdpvJ7pg0ZtpEtpkoww/eT7I7TpZ0/ZZKBAsENRPv2Ez2HCuXnY2Sal0uDS/Mko45c6W+JaN9e9AQ8mm1QjWjpHWnKbLzf50hqd321XHQKBu2obc6Mg5I1v8J5sQ1wxLJxCusIX0cSaaCkIUZ/uMf/2iBtcX+ugvaSl+MY4LXSR/sQoH4wAnTfSUlG2eMrP2yCjCZ1TRt6ggtek1evuVGGb5wvozNZdQj1ms61WFK1Up7vkPaUnrvMSPUbNfpUGeEVlgdMuFFOr0+4MBgBlY1dtTIOsmualCyNS+9RxwW9YpsIibZVEGWp8bIiMM/K9udcLrEJ+2kfXMCeiWnZWSJETCSLfu1JPMPkz0UJA9aJ7FmzRrTZIZOmGe0m32GSXw0htdZcbSIh3zITaaSNmNE/8kx8Ri+fE4p0T5UGhtl0QMPSPzdBTI816Haq3ExtQqpuJKrfekItQapTkk3N8iElgYZuWapjND9Yc1NUtvcsk4Y1tQsdauaJLa0QRLNOlTS/ty8+OK6r5iOneO5gozsapWWl56XZc89J4WWdoll9TyNUXXFjIM2aGWVK+w6YPUxgtfGDSYqTrJrJQ7X4sWLzTwTnEgIP/zww+31ETfPbDHPyq6l45/u0dPZeBMvO9fZISveeF5aX5spY3Jtkip06RUYTT2vypJTdymn1iOp1yTRLCUi1d0lCQvqZBU0sPWgZDJwiqtnnFZCk5oJbYbHFgFlSlA+YR77sIblsvqJB6XtndnSreUI1lRrX6x1RVN9EsRhdSgRjM2wUhZD5TEomkwFmZf2V0AcxONRMxzCfHscHmuAtYIgJqmmU7tGI6Jx/huy5In7ZLh6wTU6dmZtVTfDKTRO9xP5uKTzaUln65TUYcqB9sV6PshP2dNGoCNoDSz3IbBvPatu6V+D5JhgYnnoQRxkpzVteunbsmLmw5JtWq0NMzDZWvjAi96owgb3GCy4NCsC12K0E5Lpl9FS4C2bca+PH0sI7xbz4PUWFgLEdaiSXbNaGmY9Jvlli6U1XictyWGS0W0mPkw6te/NaK+dkWE6eibU2TYTq7U0nVKrFGm/W6jVoFs9FwQ9p2nakmlpTtVIU5pQKy26bU2lpT2Rks6E0qtDsmwsKVl18Ja8MF1WvDnTrE5C4+iH46rR1h9TBw+9groF9askKup4OckQiMPF1254BxlzDeh/eZntN7/5ja2McJivo8A0lwRhm7zkO9ql8a2XZOlDd0i+aY3oUNYMagIN1zQIOCw38vIo+vMg0LYZ+gQgxi7RThUPniW5wRXobeB8xc2r4tmz2gC9PBdTn0Idu7H7HCg7nXC21I3QoZk6fZJIqgVAmzfIbgik62vaTcOgDKHAVVddJTfddFNpug+NZv8Tn/iEkewfi0G81rcVBYywbQ207Sqjeq6rsUE6V62k8DYeNfEHSeEpSAtMfkEuHpmP8czYDLAeBfTaNbanO6UMINeS6H/+0TCcZLZ6rZ6PJ2tk5KQdtU51ml7Lp2PngnrimyXJaPGNN95oM1yYb7QcTd5vv/3s/WM+3aQdmqVFziXBBzsBcHAQiPbBxBbQbHWgvEEwooUYv0S7ZQNKSFTQgPRACYADXzQfRAUkc21ANpSyCegNjtQZ0wuDoVLQ9/MIknwSGm/euM2lk2exAXGwQXB+Y2kGhqIYKgsIzanW+vDIg58jcIxOhqtrL6iVEKSxoCaRoVUimZIaHQ+nVZtSyVodc9fquVr10IKQSKjTpccp3aZV02o0kM7Sxms1j7SFRLxG25fGaX8e137brtNtXI9jupU4n2xWx9DS1SjVGmLMmlEehnjavNT5sjGzFjkw9gUbHjI/P2fOHPuKAN/ynj9/vixbvsz8kzBcDh6iRMU1GbNMoXnfGJPtv0MBWRDPMlQ0mQl8J35dhItXXtTgeJ2rwklCJ9a9sqf79A4egvgl4Xx4ea5bx9NOCnPUTO68t+g9ewgzW0lduHCBtLa22ZwAz5pxNJmbZ2Xmfvvvb+u7xowea3XvidyeZdI/VJxkb5n8XAGfKvYPrAIaAH0x7+TyIAIz3m/gJPWnBr3JzIZX/QOL8BGfDYu1DFgqvrB3zz33KLkLSw08TJTF6bZLu62JOqqYsueecu65560zTxBOHwXJFTfXFJJA62Xrkx0IBAFg0li011Mr7hOMnL4EoAIjfU+hn6C8EEyxC9pJL1q0WC666Mdy5ZVX2Qv2mGOmawlONlu/FjmsWb3aFk78z/+cb1/rL59HiAr9r10/QYUg139QxEEcGo355lONkA3xlQNVHbhWrItg9SgzeXxFkLcjcCy1ckYi9bMnbEWC2ea0jux7l0W6hoZVZuX4AgFywLRHiYqT7ODBAw/PfUoTeMvm04S8I0SFPyqg8eJTsFyY1R6sMCXOuiLdAq9fQuvFOeLpl4Ev/iOQjmlfTD3Le707iwqDoslUgr4XZ4OW75XjHKTz2cF//etfptUOv45gAvoQgHJ4ubzbodx4zn4MIMk1mZJT55Rq7vD6EeaJp1NpC0yHel4sdWJ1Kl/3x9x7dxYFIvm25obggvFKsyIEMjn2SlBRhhY8qWLmy1/fBN4gCEMBL2O5wDnmY6+///3vjZwSqRpPUgKrMg884ECZNu0UOe7Y4+TII460OPppnqmb0xZ6mEEe5MUUMA9tID6KelecZEDFqQDaTCX4zKIDk+ePHvn0Imuw+UAqaV1oXNuXyoYbRBTCcQTErSWZ8tBv8nsbzz33nJHmZaQ+NFqGhvyqDt8i40dG+KIRgd/CYtULPor/OGn4OvZp7Cx98u9sDhSDQrKbJCrAZ4z47UZaK8BcU0EcEYSFE0MfzRpsSIZwrqURkA/b/gTyDh8jVOLYeuC+4WNCOA3n/buflJctIwKWMdEn0wBoqE4Uz8dZmcn7TdTLr/HAx2P31zEy+WLqkQtlo75eZhoBP63EuYFiUCZDwpVg/9FHH5XLL7/c3nMi3oEAnEgXBo8gCUwiRFHhMMLa2Ru4JwRSdoTO4gbAl/V/+MMfmsNkHrSWmwD4pjcfkOWacpCf35fZMPJgJswbO9dAPuaaFa18mXCgGLTJEALEAbSDt/2Y6XIt4ry3ZMAxQuPlbM4PBcJlh4RjjjnGligByg9BlBFtpYwQyD5P3DC3wInnnBNMHWkYmHx+0Y6fR+IY+ZAP+8wA8soQXxoeKAZtzOIEAyrB+7h8N9MrjxDDguCYgJkEfi7KsDGE00EMwUlnPAwh1AsNJB2EsoSJJ2vsk86vZ99BY+aYLY4mW/Iif/YBM4Ne94Gi4iSHBRUGLZ4f2OTzg8zfQjwzPl5RrkGAeJhsPZ8ogqOncz0FykMIN1RIci11MjnvCxG9QRAPyrd+jgUTXl/PM9ygosCgaDIVKA9UAg044ogj7Ic2+OA3GgCpVNS1g9BbHpsS+pNXGFgVb2x+DFzzAOdwyKgbjdZJ8mvCW28gfIWA9DR68ieQJ9PAdFVRYNDMdTmoDIJCEP4TdzhjvL566KGHmtNFJREIU31oOePrgQSGb77ta/Br/XetIMcDRLJ1oikr1zB6wNfg2AMIk079MceMtYn3hkE8x5h9GnwUGLRFA2FQCQICCgNhEQ+hzIIxnOJD3zgoxAPfDha4H40RTcPT/dznPmckManDC3uMEJwYtpDF8Igf9+K7XPS13pjDhLPlx1iYs+arQID6IxPyOPnkk81n4cdYBoohJdnhAnCUCwSE9wcL4TICP6YsaPdPfvITGw7SCCHIy4gGfuELX7CJECY0uM61HUAkkyh8MYEPt3HezT/aTOBnl0488URrOAPFkJhrJ9ADFQkfI5DyuKFA+b3Dx2g2EztODqYcsiAQU82XfngyRSOgu/FzPGfmV2V4qMH4mHp6XQFazFIorEH43gPBkGgycK1wRFWhwQSE8dNITE9CjmsdhKONrt28lckMFsMu/2kkzjHJgzmHfNKxJR9+wY6P34Stw0AwZCQDJ/qjSDCg/PwoOH0zM18Q5M4ThHng2DXZyeQYK+Ba7PH8LBKTLP4DZ95wBoIh866BV+6jCEgi8HsZX/va12zaFdKoj3vhnEcb2QL2PRDn6ThmnyVQjC4YWUQpmyHV5I8ynGSIgCh+uY115Zhi4ETSd7N10sPXAeIhmJ8R4lkyM2BOfFREV0neRDhZmGg0GA+b9Vo333yzPRtnvMw5JwuESaMvZh+zzFcVpk2bZosqPF/gpnygqJI8ADgZDo4hmMeHDz/8sK3wYJyPt+19NaRj2pnsYDqXGT+eOOGEeX6+DTeKgaBKckRgWsdfzuMrQK1t7bJ06RIbJi1fvkJjC9KRycjELSbalxT4YAxeN5Md7lxBKASHt1GgSvImoqDyL3KqZATbtZpofzWgiQF5FqNR9oE53YHYMJFREdoThtS7/qgCgkFAYLAPAqLCZAVE217Avy3kiyXikley+bCNN4xKokpyP+EEbwgB+WgxjtNaggPSi8ekYWPp+pDpAFAluZ8Iv2TZO5w0NBUig337awwXM9F4O6qwNldJrggCcstBHIQG50yPK04wqJJcAQS8bbi/xfGycTAOWIXNddW77if60ic7yQECD7ucb+fV4yupbVWS+4m+kNxfQHQlSa6a680AVZI3A1RJ7if6NoT6cKFK8iYAoqMku9IkVB2viNFfx2wwLENVkyNG1FoeBaokbwaokrwZoEryxx4i/w9+rTaHEn88dgAAAABJRU5ErkJggg==;" vertex="1" parent="1">
          <mxGeometry x="132" y="199" width="121" height="109" as="geometry" />
        </mxCell>
        <mxCell id="Ic-RP3hw3uzLLvs5jVVw-6" value="Robot" style="shape=image;verticalLabelPosition=bottom;labelBackgroundColor=default;verticalAlign=top;aspect=fixed;imageAspect=0;image=data:image/png,iVBORw0KGgoAAAANSUhEUgAAAF8AAABUCAYAAADki+s2AAAAAXNSR0IArs4c6QAAAARnQU1BAACxjwv8YQUAAAAJcEhZcwAADsMAAA7DAcdvqGQAAA86SURBVHhe7V0Lc5TVGeZ/VLkm5LK7CVCLVdqZTh1IskkghIuX6qgEatVWoWABZ3rzMoC2tqgFOu1oR5FLZ6yXGXS4eGkHHa2Bqii3kEBISMh1s7u5J5unz3u+c5LNZi/fsskmC/vMPPk23znv+53vOee85z2HuE6DTUxLY1wxJJpa0saGtkljnBCX+OGg/aRxrdA6XhO0izSuFVpHWxgakskycg2F3De8URCqiZbVHpRFHNizZw82b96MLVu2DHPzVk35zLJo5cH3R8q3suxJxfDlI4xYPkn2GzZsUNfe3l6tkAUtb3Touraxdu1aOJ1OOAxdTuRqyu9SpuhyDdORZ1E+uzSdrrxhOhTz1WdTbtUJsSdHysfaC6PZC8fP3qLD4VD0d3ZCxr6W1R4sSe1j3bp11kNF7GDhgygNdrGhIpZqdL712dCVJyJT7DyLDn21aNkae2G89qoO22A+h9oLI9uzQ1T5SN2w9kKpowebvyuJ4qsRQaFznA7khlDNAFVOspGK5ndSjSinNdJG04xCGZEj9XND7IXB9rlhfFgDxGI4e1cM+0jPz58/X73PpIqvRmZ+Hh6sWINtO7aP4vYdO7DjuR3YHpHPYceO53mNzITt2YbwthZj2z/H61i7Z7dvw1PPPqM6J+niS8wfHvl86Bv79yHA+/LgYApC7xkahCszFIS7bygwn2M9P9HyYAaGAujr7x8W3bCTMV+gZbUHZREHKioqRj30wMGDqlGRYBodCbHKBYmWi7jREK//gYGB4fdXUYCcNPEnGhPdOSkr/sEkiD/VIOIb0fMk8yI7u7pUmZbVHpSFDUjvC9esreCqr9NKip+MkT/VMCw+k468fO4NmHh0dnep8KZltQfLXXSI6OJYGCx+LsXf/8/oMf96hBFf5fsU3zkvD/60+MlBOPF9TDXT4icBoeJL2JE8f0LEF4jAwgqKr3aopMT8/QcP3Ljik+qoY6LFN5BsRy028nBZcA9Q/BvoCFkg4ptsz8yACQs7wUiLP1Z8yXqScrwwPuKPZ2eNhy/jw56vMeKTSdtkJSK+1BzkBJUpOmRedqAX6G4FLn4OnP0YOP0pUHcG6PFYBqRVV6xCIff61acBckj9HOQtH+CrA6oqgVOf0OdnQNNZVupQNVWbWTXAHwGpr54Tzv9YpKT4Rj4RXyTCQDdF/gqdr2zH/36yCGdX5ODyqgxcXuHEudW3onr9ncB7bwLtV2gsAo99zpDyyN0li5R0Q+yw08fhf3ErKu9eiJryeahdlo+a5fNwanU+Lvz2fuDTt9ix7Jy+ANuuh4K4Zh/YQUqKLy85YN6wh4K9/wZOL3eirXgWmgpvRkdJFjoKZ6HFPQcthbPhWZyBhgIHLjxazNHL2RBmYFq35J/w2IZOD3z7nsV5Cu4tyERL0Vx4irPoaw7a3JnoKM1Ga/F0XOVzarc8AFz+mg44p8h4kKLi68HV14Oef7yAhmV58FDodgrT7M5AY8ksJX5rcQbvzUFn4Vz4C51KwJoVt1ohJCz4/G4Pmp5fj8ulN6FtaSY8hRnwFVD0ojloKuaVPruXZKClZCY8RVloKslEzUM/Ahq+Zrv6VOOsYBgbKRt2MMhR+ul7qF/KEV+QAb87h2Jko754Lk7fnY+6dYtRV1HAUPFddkQuegqz4XXPQHtBFqruXgR0MI4LlDP5SwkrXne9/ie0UORm92x0FGXAs2Q2R342qu65HVU/W4aLDxZxxOdzBjjoNwetRXxu8UzUr19KNdu1PxE/9rukrviM3ydXLqQws+FjaOl0Z+ESwwBe28awUcVw1MaFkotizWnUb7yPozYHPtb1cAY0u13o2vUr9DNkqUihhCdba9G4Kh/epRlodWdz1nDduGsBcOAl+rrIWcH43kWflYfQ9Eg5mtmh7cUOij8XPs4A/79elZaJQ32NjpQUHwEK9cGbaCnL5ejMZFjIREN5HnB8P7MTyZOZeQwwBAjEZXcLLm2+F40MP23uXCXs2RXfA/z1Kr/pl59ctNv++jRaCzMZYmaysxjPV1P4r5g1aTEHB1Wwk0+0bUbTE6vQQfF9XGu8nB1t68rYtn6O+/CLeihSU/x+P2qfeZgCMe5y1Ldw+l/ZyoWvz8+XH/ljK/k57NHbiHPLnBypXA8Yv68sczGb+TdlHES3xOoBH64+vphrBxdUll8tmQvs28lnDVJK5lRDssSrZNKKKoKaz9Fc5EA3Q5Sf4ae5JJex/wzr6I6PgUjiS5u1rPZguYsNI4g525FdnTrbEfFHpIqOvlZ8dv8PVCYjsflCGUd9NbMYkUdc6JArQlk68ZeAD+efXK1CSWtxJuq4EOOdl1inh9Jy/RjsRt0DnBUsk9nUVOIAak/R3sfyHnros1onDo34gz3oe6yIYSeD8X82Gsu4OB+X9xi06sbAKPGpw4QeLxhdhOpUUz9QTjX3xSM+4/kXd96KNmY0zRTx9Ip5XEDPW5rID3FjaDDoR9X2h5mtzKTAWWjgYoq3/sg6PdZIHRxCw71Oipit2MjQNNh2hiXddGPCTSh64ft1GZrYBh9DVSuzLO/He3lftSQmjPhysis6iB4pIL4Hn921iFN+NhpK5jAf5yhtOGmVmQeEij/Qj4tb7ld5ejtTxAbm7nj7b1JA4UmWN95zC8uz0bWEKaSU152S0rDjWEKQ9EnX+iJmWtlMZ7mYc9Z4/vMOn2vvPcKJ76X40tVaVnuw3EWHNGlcxO/vQM1TazmKJTzMYHzmiNv2CMORlw9h0+XlxZVxJ793tuLiqtvUqJb8/EoZO+zbT6wyWUgZdq78okjNig7m9p5SZk5v/FmZS3HoejQoL1HzDXwU3suR72Wousr2oL6aBaPrRkKo+MIJHfmGIr46z9fixxXz5Rjgo70MOXM5iqejw30zLpU5mQK+T+fsAAkj5kEBvgpnSvXvHoKnJIfxXDKeTJxbSfHb6sUZIWON4r+0XsX8JnZmW/FstYdA9RdWleC2SUd423F100outDO5iE9nystN2E9/zIHRyzVan/nEQFLFD0ZC2Y7Ua76Eb+5kns8F18NtfwevF1c70f8WM5Seq9SfeT4FQn0Vvnx0OTOjbOblGWiWIwiya+fjzPP1IcVQL6Xt4eyoRsNybp4opnSS1z0d50vzEDh6kL4us3/os0t8nsOlR5dyxt1EfzOYuk5HeylDzkE+u48BSU2L2Bi14OqBOOXFV9UGmUsffxdXls5DB3etkm20lH5HCVK9MgeV3CydWr0Q1Utz0VbKUckFtpmjVI4fvl15C0e9HLJRAPnBt1WnmAEmna88DW8x9w9MX31yLLGY+wjuDarKs/Hlvbfj61ULOStyGbpy0M5nttOnr+AmhqxCdrqXgsoy3E9/sd8lnPhT/jxf6qlT2y7uUP/+AhoLJEuZQUFmwL+EOTc3XVZ4ybIWWIaQVjezEfIc4z5qT6iUVCKSeqK6ymGdpJy9aP/9zzmSs7hr5saJu1fJ/dViSnpJn1q0czjjHGgryUB9xQ+ZbXFm9PfRr3U+ageh4gun/vGCKC/KSczghgvvvogL5U60ciGVxbS9kKTw7VwTpAOai3NwiTPgxMpFwJWztJONk1B6QDnkKiE7U9ULRCd69vwGF0td3DjJvmAuZ1UGF9V8ZkL56JbwVToL9Syve2wZQ2ANhzs3YJyN0jTJkOwgJcVXCvEt1QwQmwBHbEcNPH9Yjxrm/xeWz8flMnL193Gm/BZ8eRdH++FXAX+HFlt2oOqDONNQ0X8EAUrYWInqrWVcnBfgbKkTtcsXoLZ8AarL56PmwTuA/75NBbkO0BVbQw9WsLH7FikqPl9QC6/I3+U0RenZyQWx5TR5giPyDAXn4tvrYyqvamhlLKksg7FQ5/IDvbo7JIjXcsE9b82axirAc06Uow/dXlaUYCPii8fwXscimvjiWfxoeaNDWcSBRMUPhlgpS/NBRi1Ht/VPgbzBt7Biujn0ErVURTIcpHMkXWU9XUXOgKzZIZ7kpuEIwt+NjOtAfNNMUrTRF7UDlTJ9kVqWd7kh/2KlC8JASqSjFCy9R8Vx+az/xVbB+A6mHdgRX2aTljgylEUcGF/xr8UuMixv8uoTi+tA/NRFyoofkFQzBP39TPXoYzI68VqeOfnic1c3fJ4fxwtUVlbi5Zdfxq5duxQPHTqEvj4uskkU/+TJk9i9e7fizp07cfjwYV1iD6PEDznbMRw38U1vChM61SREcDNahGvWrBkWPhniyzP27t07LJ5w48aNutQejPjhDtYMtbzRIc5i4XoSXzDe4st/JO3tnurn+cT1KH7wyNey2oPlLjpEEsOUDzvk60Hiy7o1pcUPRqLZTjjx5URRFiihmWHBtOM9nF0kvkbxRTihDKANm65NfKHSIS2+fU6E+Cnx9/mh4ivqqRuZ1reMWAyx1QxvF0zzrSKj70sI/eUTm3Tr7CFUfKHJ87Ws9qAs4kDyxJevXhlhVPFt2N+w4kupTHe5/mX3rjECCI1Pi8FiW4wknmEs+xGG1nVh06a0+EGcSPGlbHT9G0L8SIxubSGcnaEd+/FEWvwgpsW/gZAWfxKRFn8SkRZ/EhEqvmRbE/bdCyKtWdwSPVi7HmDET8rBWlr80QgVP57zfLHXH9PiXwvS4k8iEhF/FCx39hG84KovuLvBFlx5076BAIXXX/urjz18Xd1qcGpZY0J8JSS+9H5a/LT4ScOUEl/+bkf+PFUaFa4LzP1I5YJUKheOFT/+bxdk1QTEl4WGC85tixahwF2EJYUFigUFwkJS7o2lVU7q+qG0bU9GthdOjH2huwR3LC4YFt36dsF89aWmAq1tTKi6yiIOhIqf43KQztH/EwOnLMZ5zIZIjo4cUn2W+6rcorEZay+7R2MTbC+jzZRHsSej2qvy2PbmHcTe0Jk/D9m5LB8lvoviy/GCjb9S0xAtExJf0izFfGmUTEGKqzpFQpI1LYXSAeazRZYHvWjwS1uMZc9nUbzI9lo8XXc87A1NjB8RX+iCv9tP6aeg+OEYLP5Y2rAPEi8cJ9reotHAyZjvY8yXqG+vA0TLuMU/ceIEjhw5gqNHjyoeOcbrsWM4RsrV3B8uN3VC7hsmWi6MVX44QXspP3zsAxw++gHbM/odP/zoQ/XuA/JVBEHQGkeEqqNq2oT8ebehQaQMwcBkCNGQCuXyxiNvHRta44hQdVTNNCYFafEnEWnxJxFp8ScROvynkUYaaSQH06b9H3yLEAjjPeQpAAAAAElFTkSuQmCC;" vertex="1" parent="1">
          <mxGeometry x="40" y="30" width="95" height="84" as="geometry" />
        </mxCell>
        <mxCell id="Ic-RP3hw3uzLLvs5jVVw-8" value="Robot" style="shape=image;verticalLabelPosition=bottom;labelBackgroundColor=default;verticalAlign=top;aspect=fixed;imageAspect=0;image=data:image/png,iVBORw0KGgoAAAANSUhEUgAAAF8AAABUCAYAAADki+s2AAAAAXNSR0IArs4c6QAAAARnQU1BAACxjwv8YQUAAAAJcEhZcwAADsMAAA7DAcdvqGQAAA86SURBVHhe7V0Lc5TVGeZ/VLkm5LK7CVCLVdqZTh1IskkghIuX6qgEatVWoWABZ3rzMoC2tqgFOu1oR5FLZ6yXGXS4eGkHHa2Bqii3kEBISMh1s7u5J5unz3u+c5LNZi/fsskmC/vMPPk23znv+53vOee85z2HuE6DTUxLY1wxJJpa0saGtkljnBCX+OGg/aRxrdA6XhO0izSuFVpHWxgakskycg2F3De8URCqiZbVHpRFHNizZw82b96MLVu2DHPzVk35zLJo5cH3R8q3suxJxfDlI4xYPkn2GzZsUNfe3l6tkAUtb3Touraxdu1aOJ1OOAxdTuRqyu9SpuhyDdORZ1E+uzSdrrxhOhTz1WdTbtUJsSdHysfaC6PZC8fP3qLD4VD0d3ZCxr6W1R4sSe1j3bp11kNF7GDhgygNdrGhIpZqdL712dCVJyJT7DyLDn21aNkae2G89qoO22A+h9oLI9uzQ1T5SN2w9kKpowebvyuJ4qsRQaFznA7khlDNAFVOspGK5ndSjSinNdJG04xCGZEj9XND7IXB9rlhfFgDxGI4e1cM+0jPz58/X73PpIqvRmZ+Hh6sWINtO7aP4vYdO7DjuR3YHpHPYceO53mNzITt2YbwthZj2z/H61i7Z7dvw1PPPqM6J+niS8wfHvl86Bv79yHA+/LgYApC7xkahCszFIS7bygwn2M9P9HyYAaGAujr7x8W3bCTMV+gZbUHZREHKioqRj30wMGDqlGRYBodCbHKBYmWi7jREK//gYGB4fdXUYCcNPEnGhPdOSkr/sEkiD/VIOIb0fMk8yI7u7pUmZbVHpSFDUjvC9esreCqr9NKip+MkT/VMCw+k468fO4NmHh0dnep8KZltQfLXXSI6OJYGCx+LsXf/8/oMf96hBFf5fsU3zkvD/60+MlBOPF9TDXT4icBoeJL2JE8f0LEF4jAwgqKr3aopMT8/QcP3Ljik+qoY6LFN5BsRy028nBZcA9Q/BvoCFkg4ptsz8yACQs7wUiLP1Z8yXqScrwwPuKPZ2eNhy/jw56vMeKTSdtkJSK+1BzkBJUpOmRedqAX6G4FLn4OnP0YOP0pUHcG6PFYBqRVV6xCIff61acBckj9HOQtH+CrA6oqgVOf0OdnQNNZVupQNVWbWTXAHwGpr54Tzv9YpKT4Rj4RXyTCQDdF/gqdr2zH/36yCGdX5ODyqgxcXuHEudW3onr9ncB7bwLtV2gsAo99zpDyyN0li5R0Q+yw08fhf3ErKu9eiJryeahdlo+a5fNwanU+Lvz2fuDTt9ix7Jy+ANuuh4K4Zh/YQUqKLy85YN6wh4K9/wZOL3eirXgWmgpvRkdJFjoKZ6HFPQcthbPhWZyBhgIHLjxazNHL2RBmYFq35J/w2IZOD3z7nsV5Cu4tyERL0Vx4irPoaw7a3JnoKM1Ga/F0XOVzarc8AFz+mg44p8h4kKLi68HV14Oef7yAhmV58FDodgrT7M5AY8ksJX5rcQbvzUFn4Vz4C51KwJoVt1ohJCz4/G4Pmp5fj8ulN6FtaSY8hRnwFVD0ojloKuaVPruXZKClZCY8RVloKslEzUM/Ahq+Zrv6VOOsYBgbKRt2MMhR+ul7qF/KEV+QAb87h2Jko754Lk7fnY+6dYtRV1HAUPFddkQuegqz4XXPQHtBFqruXgR0MI4LlDP5SwkrXne9/ie0UORm92x0FGXAs2Q2R342qu65HVU/W4aLDxZxxOdzBjjoNwetRXxu8UzUr19KNdu1PxE/9rukrviM3ydXLqQws+FjaOl0Z+ESwwBe28awUcVw1MaFkotizWnUb7yPozYHPtb1cAY0u13o2vUr9DNkqUihhCdba9G4Kh/epRlodWdz1nDduGsBcOAl+rrIWcH43kWflYfQ9Eg5mtmh7cUOij8XPs4A/79elZaJQ32NjpQUHwEK9cGbaCnL5ejMZFjIREN5HnB8P7MTyZOZeQwwBAjEZXcLLm2+F40MP23uXCXs2RXfA/z1Kr/pl59ctNv++jRaCzMZYmaysxjPV1P4r5g1aTEHB1Wwk0+0bUbTE6vQQfF9XGu8nB1t68rYtn6O+/CLeihSU/x+P2qfeZgCMe5y1Ldw+l/ZyoWvz8+XH/ljK/k57NHbiHPLnBypXA8Yv68sczGb+TdlHES3xOoBH64+vphrBxdUll8tmQvs28lnDVJK5lRDssSrZNKKKoKaz9Fc5EA3Q5Sf4ae5JJex/wzr6I6PgUjiS5u1rPZguYsNI4g525FdnTrbEfFHpIqOvlZ8dv8PVCYjsflCGUd9NbMYkUdc6JArQlk68ZeAD+efXK1CSWtxJuq4EOOdl1inh9Jy/RjsRt0DnBUsk9nUVOIAak/R3sfyHnros1onDo34gz3oe6yIYSeD8X82Gsu4OB+X9xi06sbAKPGpw4QeLxhdhOpUUz9QTjX3xSM+4/kXd96KNmY0zRTx9Ip5XEDPW5rID3FjaDDoR9X2h5mtzKTAWWjgYoq3/sg6PdZIHRxCw71Oipit2MjQNNh2hiXddGPCTSh64ft1GZrYBh9DVSuzLO/He3lftSQmjPhysis6iB4pIL4Hn921iFN+NhpK5jAf5yhtOGmVmQeEij/Qj4tb7ld5ejtTxAbm7nj7b1JA4UmWN95zC8uz0bWEKaSU152S0rDjWEKQ9EnX+iJmWtlMZ7mYc9Z4/vMOn2vvPcKJ76X40tVaVnuw3EWHNGlcxO/vQM1TazmKJTzMYHzmiNv2CMORlw9h0+XlxZVxJ793tuLiqtvUqJb8/EoZO+zbT6wyWUgZdq78okjNig7m9p5SZk5v/FmZS3HoejQoL1HzDXwU3suR72Wousr2oL6aBaPrRkKo+MIJHfmGIr46z9fixxXz5Rjgo70MOXM5iqejw30zLpU5mQK+T+fsAAkj5kEBvgpnSvXvHoKnJIfxXDKeTJxbSfHb6sUZIWON4r+0XsX8JnZmW/FstYdA9RdWleC2SUd423F100outDO5iE9nystN2E9/zIHRyzVan/nEQFLFD0ZC2Y7Ua76Eb+5kns8F18NtfwevF1c70f8WM5Seq9SfeT4FQn0Vvnx0OTOjbOblGWiWIwiya+fjzPP1IcVQL6Xt4eyoRsNybp4opnSS1z0d50vzEDh6kL4us3/os0t8nsOlR5dyxt1EfzOYuk5HeylDzkE+u48BSU2L2Bi14OqBOOXFV9UGmUsffxdXls5DB3etkm20lH5HCVK9MgeV3CydWr0Q1Utz0VbKUckFtpmjVI4fvl15C0e9HLJRAPnBt1WnmAEmna88DW8x9w9MX31yLLGY+wjuDarKs/Hlvbfj61ULOStyGbpy0M5nttOnr+AmhqxCdrqXgsoy3E9/sd8lnPhT/jxf6qlT2y7uUP/+AhoLJEuZQUFmwL+EOTc3XVZ4ybIWWIaQVjezEfIc4z5qT6iUVCKSeqK6ymGdpJy9aP/9zzmSs7hr5saJu1fJ/dViSnpJn1q0czjjHGgryUB9xQ+ZbXFm9PfRr3U+ageh4gun/vGCKC/KSczghgvvvogL5U60ciGVxbS9kKTw7VwTpAOai3NwiTPgxMpFwJWztJONk1B6QDnkKiE7U9ULRCd69vwGF0td3DjJvmAuZ1UGF9V8ZkL56JbwVToL9Syve2wZQ2ANhzs3YJyN0jTJkOwgJcVXCvEt1QwQmwBHbEcNPH9Yjxrm/xeWz8flMnL193Gm/BZ8eRdH++FXAX+HFlt2oOqDONNQ0X8EAUrYWInqrWVcnBfgbKkTtcsXoLZ8AarL56PmwTuA/75NBbkO0BVbQw9WsLH7FikqPl9QC6/I3+U0RenZyQWx5TR5giPyDAXn4tvrYyqvamhlLKksg7FQ5/IDvbo7JIjXcsE9b82axirAc06Uow/dXlaUYCPii8fwXscimvjiWfxoeaNDWcSBRMUPhlgpS/NBRi1Ht/VPgbzBt7Biujn0ErVURTIcpHMkXWU9XUXOgKzZIZ7kpuEIwt+NjOtAfNNMUrTRF7UDlTJ9kVqWd7kh/2KlC8JASqSjFCy9R8Vx+az/xVbB+A6mHdgRX2aTljgylEUcGF/xr8UuMixv8uoTi+tA/NRFyoofkFQzBP39TPXoYzI68VqeOfnic1c3fJ4fxwtUVlbi5Zdfxq5duxQPHTqEvj4uskkU/+TJk9i9e7fizp07cfjwYV1iD6PEDznbMRw38U1vChM61SREcDNahGvWrBkWPhniyzP27t07LJ5w48aNutQejPjhDtYMtbzRIc5i4XoSXzDe4st/JO3tnurn+cT1KH7wyNey2oPlLjpEEsOUDzvk60Hiy7o1pcUPRqLZTjjx5URRFiihmWHBtOM9nF0kvkbxRTihDKANm65NfKHSIS2+fU6E+Cnx9/mh4ivqqRuZ1reMWAyx1QxvF0zzrSKj70sI/eUTm3Tr7CFUfKHJ87Ws9qAs4kDyxJevXhlhVPFt2N+w4kupTHe5/mX3rjECCI1Pi8FiW4wknmEs+xGG1nVh06a0+EGcSPGlbHT9G0L8SIxubSGcnaEd+/FEWvwgpsW/gZAWfxKRFn8SkRZ/EhEqvmRbE/bdCyKtWdwSPVi7HmDET8rBWlr80QgVP57zfLHXH9PiXwvS4k8iEhF/FCx39hG84KovuLvBFlx5076BAIXXX/urjz18Xd1qcGpZY0J8JSS+9H5a/LT4ScOUEl/+bkf+PFUaFa4LzP1I5YJUKheOFT/+bxdk1QTEl4WGC85tixahwF2EJYUFigUFwkJS7o2lVU7q+qG0bU9GthdOjH2huwR3LC4YFt36dsF89aWmAq1tTKi6yiIOhIqf43KQztH/EwOnLMZ5zIZIjo4cUn2W+6rcorEZay+7R2MTbC+jzZRHsSej2qvy2PbmHcTe0Jk/D9m5LB8lvoviy/GCjb9S0xAtExJf0izFfGmUTEGKqzpFQpI1LYXSAeazRZYHvWjwS1uMZc9nUbzI9lo8XXc87A1NjB8RX+iCv9tP6aeg+OEYLP5Y2rAPEi8cJ9reotHAyZjvY8yXqG+vA0TLuMU/ceIEjhw5gqNHjyoeOcbrsWM4RsrV3B8uN3VC7hsmWi6MVX44QXspP3zsAxw++gHbM/odP/zoQ/XuA/JVBEHQGkeEqqNq2oT8ebehQaQMwcBkCNGQCuXyxiNvHRta44hQdVTNNCYFafEnEWnxJxFp8ScROvynkUYaaSQH06b9H3yLEAjjPeQpAAAAAElFTkSuQmCC;" vertex="1" parent="1">
          <mxGeometry x="145" y="30" width="95" height="84" as="geometry" />
        </mxCell>
        <mxCell id="Ic-RP3hw3uzLLvs5jVVw-9" value="Robot" style="shape=image;verticalLabelPosition=bottom;labelBackgroundColor=default;verticalAlign=top;aspect=fixed;imageAspect=0;image=data:image/png,iVBORw0KGgoAAAANSUhEUgAAAF8AAABUCAYAAADki+s2AAAAAXNSR0IArs4c6QAAAARnQU1BAACxjwv8YQUAAAAJcEhZcwAADsMAAA7DAcdvqGQAAA86SURBVHhe7V0Lc5TVGeZ/VLkm5LK7CVCLVdqZTh1IskkghIuX6qgEatVWoWABZ3rzMoC2tqgFOu1oR5FLZ6yXGXS4eGkHHa2Bqii3kEBISMh1s7u5J5unz3u+c5LNZi/fsskmC/vMPPk23znv+53vOee85z2HuE6DTUxLY1wxJJpa0saGtkljnBCX+OGg/aRxrdA6XhO0izSuFVpHWxgakskycg2F3De8URCqiZbVHpRFHNizZw82b96MLVu2DHPzVk35zLJo5cH3R8q3suxJxfDlI4xYPkn2GzZsUNfe3l6tkAUtb3Touraxdu1aOJ1OOAxdTuRqyu9SpuhyDdORZ1E+uzSdrrxhOhTz1WdTbtUJsSdHysfaC6PZC8fP3qLD4VD0d3ZCxr6W1R4sSe1j3bp11kNF7GDhgygNdrGhIpZqdL712dCVJyJT7DyLDn21aNkae2G89qoO22A+h9oLI9uzQ1T5SN2w9kKpowebvyuJ4qsRQaFznA7khlDNAFVOspGK5ndSjSinNdJG04xCGZEj9XND7IXB9rlhfFgDxGI4e1cM+0jPz58/X73PpIqvRmZ+Hh6sWINtO7aP4vYdO7DjuR3YHpHPYceO53mNzITt2YbwthZj2z/H61i7Z7dvw1PPPqM6J+niS8wfHvl86Bv79yHA+/LgYApC7xkahCszFIS7bygwn2M9P9HyYAaGAujr7x8W3bCTMV+gZbUHZREHKioqRj30wMGDqlGRYBodCbHKBYmWi7jREK//gYGB4fdXUYCcNPEnGhPdOSkr/sEkiD/VIOIb0fMk8yI7u7pUmZbVHpSFDUjvC9esreCqr9NKip+MkT/VMCw+k468fO4NmHh0dnep8KZltQfLXXSI6OJYGCx+LsXf/8/oMf96hBFf5fsU3zkvD/60+MlBOPF9TDXT4icBoeJL2JE8f0LEF4jAwgqKr3aopMT8/QcP3Ljik+qoY6LFN5BsRy028nBZcA9Q/BvoCFkg4ptsz8yACQs7wUiLP1Z8yXqScrwwPuKPZ2eNhy/jw56vMeKTSdtkJSK+1BzkBJUpOmRedqAX6G4FLn4OnP0YOP0pUHcG6PFYBqRVV6xCIff61acBckj9HOQtH+CrA6oqgVOf0OdnQNNZVupQNVWbWTXAHwGpr54Tzv9YpKT4Rj4RXyTCQDdF/gqdr2zH/36yCGdX5ODyqgxcXuHEudW3onr9ncB7bwLtV2gsAo99zpDyyN0li5R0Q+yw08fhf3ErKu9eiJryeahdlo+a5fNwanU+Lvz2fuDTt9ix7Jy+ANuuh4K4Zh/YQUqKLy85YN6wh4K9/wZOL3eirXgWmgpvRkdJFjoKZ6HFPQcthbPhWZyBhgIHLjxazNHL2RBmYFq35J/w2IZOD3z7nsV5Cu4tyERL0Vx4irPoaw7a3JnoKM1Ga/F0XOVzarc8AFz+mg44p8h4kKLi68HV14Oef7yAhmV58FDodgrT7M5AY8ksJX5rcQbvzUFn4Vz4C51KwJoVt1ohJCz4/G4Pmp5fj8ulN6FtaSY8hRnwFVD0ojloKuaVPruXZKClZCY8RVloKslEzUM/Ahq+Zrv6VOOsYBgbKRt2MMhR+ul7qF/KEV+QAb87h2Jko754Lk7fnY+6dYtRV1HAUPFddkQuegqz4XXPQHtBFqruXgR0MI4LlDP5SwkrXne9/ie0UORm92x0FGXAs2Q2R342qu65HVU/W4aLDxZxxOdzBjjoNwetRXxu8UzUr19KNdu1PxE/9rukrviM3ydXLqQws+FjaOl0Z+ESwwBe28awUcVw1MaFkotizWnUb7yPozYHPtb1cAY0u13o2vUr9DNkqUihhCdba9G4Kh/epRlodWdz1nDduGsBcOAl+rrIWcH43kWflYfQ9Eg5mtmh7cUOij8XPs4A/79elZaJQ32NjpQUHwEK9cGbaCnL5ejMZFjIREN5HnB8P7MTyZOZeQwwBAjEZXcLLm2+F40MP23uXCXs2RXfA/z1Kr/pl59ctNv++jRaCzMZYmaysxjPV1P4r5g1aTEHB1Wwk0+0bUbTE6vQQfF9XGu8nB1t68rYtn6O+/CLeihSU/x+P2qfeZgCMe5y1Ldw+l/ZyoWvz8+XH/ljK/k57NHbiHPLnBypXA8Yv68sczGb+TdlHES3xOoBH64+vphrBxdUll8tmQvs28lnDVJK5lRDssSrZNKKKoKaz9Fc5EA3Q5Sf4ae5JJex/wzr6I6PgUjiS5u1rPZguYsNI4g525FdnTrbEfFHpIqOvlZ8dv8PVCYjsflCGUd9NbMYkUdc6JArQlk68ZeAD+efXK1CSWtxJuq4EOOdl1inh9Jy/RjsRt0DnBUsk9nUVOIAak/R3sfyHnros1onDo34gz3oe6yIYSeD8X82Gsu4OB+X9xi06sbAKPGpw4QeLxhdhOpUUz9QTjX3xSM+4/kXd96KNmY0zRTx9Ip5XEDPW5rID3FjaDDoR9X2h5mtzKTAWWjgYoq3/sg6PdZIHRxCw71Oipit2MjQNNh2hiXddGPCTSh64ft1GZrYBh9DVSuzLO/He3lftSQmjPhysis6iB4pIL4Hn921iFN+NhpK5jAf5yhtOGmVmQeEij/Qj4tb7ld5ejtTxAbm7nj7b1JA4UmWN95zC8uz0bWEKaSU152S0rDjWEKQ9EnX+iJmWtlMZ7mYc9Z4/vMOn2vvPcKJ76X40tVaVnuw3EWHNGlcxO/vQM1TazmKJTzMYHzmiNv2CMORlw9h0+XlxZVxJ793tuLiqtvUqJb8/EoZO+zbT6wyWUgZdq78okjNig7m9p5SZk5v/FmZS3HoejQoL1HzDXwU3suR72Wousr2oL6aBaPrRkKo+MIJHfmGIr46z9fixxXz5Rjgo70MOXM5iqejw30zLpU5mQK+T+fsAAkj5kEBvgpnSvXvHoKnJIfxXDKeTJxbSfHb6sUZIWON4r+0XsX8JnZmW/FstYdA9RdWleC2SUd423F100outDO5iE9nystN2E9/zIHRyzVan/nEQFLFD0ZC2Y7Ua76Eb+5kns8F18NtfwevF1c70f8WM5Seq9SfeT4FQn0Vvnx0OTOjbOblGWiWIwiya+fjzPP1IcVQL6Xt4eyoRsNybp4opnSS1z0d50vzEDh6kL4us3/os0t8nsOlR5dyxt1EfzOYuk5HeylDzkE+u48BSU2L2Bi14OqBOOXFV9UGmUsffxdXls5DB3etkm20lH5HCVK9MgeV3CydWr0Q1Utz0VbKUckFtpmjVI4fvl15C0e9HLJRAPnBt1WnmAEmna88DW8x9w9MX31yLLGY+wjuDarKs/Hlvbfj61ULOStyGbpy0M5nttOnr+AmhqxCdrqXgsoy3E9/sd8lnPhT/jxf6qlT2y7uUP/+AhoLJEuZQUFmwL+EOTc3XVZ4ybIWWIaQVjezEfIc4z5qT6iUVCKSeqK6ymGdpJy9aP/9zzmSs7hr5saJu1fJ/dViSnpJn1q0czjjHGgryUB9xQ+ZbXFm9PfRr3U+ageh4gun/vGCKC/KSczghgvvvogL5U60ciGVxbS9kKTw7VwTpAOai3NwiTPgxMpFwJWztJONk1B6QDnkKiE7U9ULRCd69vwGF0td3DjJvmAuZ1UGF9V8ZkL56JbwVToL9Syve2wZQ2ANhzs3YJyN0jTJkOwgJcVXCvEt1QwQmwBHbEcNPH9Yjxrm/xeWz8flMnL193Gm/BZ8eRdH++FXAX+HFlt2oOqDONNQ0X8EAUrYWInqrWVcnBfgbKkTtcsXoLZ8AarL56PmwTuA/75NBbkO0BVbQw9WsLH7FikqPl9QC6/I3+U0RenZyQWx5TR5giPyDAXn4tvrYyqvamhlLKksg7FQ5/IDvbo7JIjXcsE9b82axirAc06Uow/dXlaUYCPii8fwXscimvjiWfxoeaNDWcSBRMUPhlgpS/NBRi1Ht/VPgbzBt7Biujn0ErVURTIcpHMkXWU9XUXOgKzZIZ7kpuEIwt+NjOtAfNNMUrTRF7UDlTJ9kVqWd7kh/2KlC8JASqSjFCy9R8Vx+az/xVbB+A6mHdgRX2aTljgylEUcGF/xr8UuMixv8uoTi+tA/NRFyoofkFQzBP39TPXoYzI68VqeOfnic1c3fJ4fxwtUVlbi5Zdfxq5duxQPHTqEvj4uskkU/+TJk9i9e7fizp07cfjwYV1iD6PEDznbMRw38U1vChM61SREcDNahGvWrBkWPhniyzP27t07LJ5w48aNutQejPjhDtYMtbzRIc5i4XoSXzDe4st/JO3tnurn+cT1KH7wyNey2oPlLjpEEsOUDzvk60Hiy7o1pcUPRqLZTjjx5URRFiihmWHBtOM9nF0kvkbxRTihDKANm65NfKHSIS2+fU6E+Cnx9/mh4ivqqRuZ1reMWAyx1QxvF0zzrSKj70sI/eUTm3Tr7CFUfKHJ87Ws9qAs4kDyxJevXhlhVPFt2N+w4kupTHe5/mX3rjECCI1Pi8FiW4wknmEs+xGG1nVh06a0+EGcSPGlbHT9G0L8SIxubSGcnaEd+/FEWvwgpsW/gZAWfxKRFn8SkRZ/EhEqvmRbE/bdCyKtWdwSPVi7HmDET8rBWlr80QgVP57zfLHXH9PiXwvS4k8iEhF/FCx39hG84KovuLvBFlx5076BAIXXX/urjz18Xd1qcGpZY0J8JSS+9H5a/LT4ScOUEl/+bkf+PFUaFa4LzP1I5YJUKheOFT/+bxdk1QTEl4WGC85tixahwF2EJYUFigUFwkJS7o2lVU7q+qG0bU9GthdOjH2huwR3LC4YFt36dsF89aWmAq1tTKi6yiIOhIqf43KQztH/EwOnLMZ5zIZIjo4cUn2W+6rcorEZay+7R2MTbC+jzZRHsSej2qvy2PbmHcTe0Jk/D9m5LB8lvoviy/GCjb9S0xAtExJf0izFfGmUTEGKqzpFQpI1LYXSAeazRZYHvWjwS1uMZc9nUbzI9lo8XXc87A1NjB8RX+iCv9tP6aeg+OEYLP5Y2rAPEi8cJ9reotHAyZjvY8yXqG+vA0TLuMU/ceIEjhw5gqNHjyoeOcbrsWM4RsrV3B8uN3VC7hsmWi6MVX44QXspP3zsAxw++gHbM/odP/zoQ/XuA/JVBEHQGkeEqqNq2oT8ebehQaQMwcBkCNGQCuXyxiNvHRta44hQdVTNNCYFafEnEWnxJxFp8ScROvynkUYaaSQH06b9H3yLEAjjPeQpAAAAAElFTkSuQmCC;" vertex="1" parent="1">
          <mxGeometry x="250" y="30" width="95" height="84" as="geometry" />
        </mxCell>
      </root>
    </mxGraphModel>
  </diagram>
</mxfile>
